<svg xmlns="http://www.w3.org/2000/svg" width="30" height="45" viewBox="0 0 30 45"><defs><style>.cls-1{fill:#fff;}.cls-2{fill:#0071bc;}.cls-3,.cls-4,.cls-6{fill:none;}.cls-3{stroke:#fff;}.cls-3,.cls-4{stroke-miterlimit:10;stroke-width:2px;}.cls-4{stroke:#1a1a1a;}.cls-5{fill:#1a1a1a;}</style></defs><title>menu-sprite</title><g id="Layer_2" data-name="Layer 2"><g id="Asset_Sheet" data-name="Asset Sheet"><ellipse class="cls-1" cx="7.5" cy="23.11" rx="6.5" ry="6.89"/><ellipse class="cls-1" cx="7.5" cy="16.53" rx="1.44" ry="1.53"/><path class="cls-2" d="M8.27,23.92a1,1,0,0,1-1.54,0,1.2,1.2,0,0,1,0-1.62c.43-.45,4.14-2.76,4.14-2.76S8.69,23.47,8.27,23.92Z"/><line class="cls-3" x1="5.47" y1="37.5" x2="12.5" y2="37.5"/><polyline class="cls-3" points="9.96 34.96 12.5 37.5 9.77 40.23"/><polygon class="cls-1" points="11.5 41.5 11.5 43 3.5 43 3.5 32 11.5 32 11.5 33.5 13.5 33.5 13.5 30 1.5 30 1.5 45 13.5 45 13.5 41.5 11.5 41.5"/><line class="cls-4" x1="20.47" y1="37.5" x2="27.5" y2="37.5"/><polyline class="cls-4" points="24.96 34.96 27.5 37.5 24.77 40.23"/><polygon class="cls-5" points="26.5 41.5 26.5 43 18.5 43 18.5 32 26.5 32 26.5 33.5 28.5 33.5 28.5 30 16.5 30 16.5 45 28.5 45 28.5 41.5 26.5 41.5"/><polygon class="cls-1" points="7.5 0 0 7.5 0 15 5.25 15 5.25 10.5 9.75 10.5 9.75 15 15 15 15 7.5 7.5 0"/><ellipse class="cls-5" cx="22.5" cy="23.11" rx="6.5" ry="6.89"/><ellipse class="cls-5" cx="22.5" cy="16.53" rx="1.44" ry="1.53"/><path class="cls-2" d="M23.27,23.92a1,1,0,0,1-1.54,0,1.2,1.2,0,0,1,0-1.62c.43-.45,4.14-2.76,4.14-2.76S23.69,23.47,23.27,23.92Z"/><polygon class="cls-5" points="22.5 0 15 7.5 15 15 20.25 15 20.25 10.5 24.75 10.5 24.75 15 30 15 30 7.5 22.5 0"/><rect class="cls-6" width="30" height="45"/></g></g></svg>