<svg xmlns="http://www.w3.org/2000/svg" width="44" height="132" viewBox="0 0 44 132"><defs><style>.cls-1,.cls-4,.cls-6,.cls-7,.cls-8{fill:none;}.cls-2{fill:#1a1a1a;}.cls-3{fill:#fff;}.cls-4{stroke:#fff;}.cls-4,.cls-6,.cls-9{stroke-miterlimit:10;}.cls-5{fill:#0071bc;}.cls-6,.cls-7{stroke:#000;}.cls-6,.cls-7,.cls-8{stroke-linecap:round;}.cls-7,.cls-8{stroke-linejoin:round;}.cls-8{stroke:#0071bc;}.cls-9{fill:#c1272d;stroke:#c1272d;}</style></defs><title>overview-sprite</title><g id="Layer_2" data-name="Layer 2"><g id="Asset_Sheet" data-name="Asset Sheet"><rect class="cls-1" width="44" height="132"/><rect class="cls-2" x="13.7" y="4.44" width="5.14" height="2.57" transform="translate(8.82 -9.83) rotate(45)"/><polygon class="cls-2" points="3 19 6.64 19 16.45 9.18 12.82 5.55 3 15.36 3 19"/><rect class="cls-2" x="3" y="23" width="16" height="20"/><path class="cls-3" d="M6.59,28.77v2.35H5.21V24.45h2.6a3.1,3.1,0,0,1,1.33.27,2,2,0,0,1,.87.78,2.13,2.13,0,0,1,.31,1.15,1.91,1.91,0,0,1-.67,1.55,2.79,2.79,0,0,1-1.86.57Zm0-1.12H7.81a1.24,1.24,0,0,0,.84-.25.94.94,0,0,0,.28-.74,1,1,0,0,0-1.08-1.1H6.59Z"/><line class="cls-4" x1="5" y1="33.94" x2="17" y2="33.94"/><line class="cls-4" x1="5" y1="36.76" x2="17" y2="36.76"/><line class="cls-4" x1="5" y1="39.58" x2="17" y2="39.58"/><rect class="cls-2" x="3" y="50.47" width="16" height="15.53"/><line class="cls-4" x1="11" y1="64.04" x2="11" y2="52.43"/><line class="cls-4" x1="15.64" y1="64.04" x2="15.64" y2="52.43"/><line class="cls-4" x1="6.36" y1="64.04" x2="6.36" y2="52.43"/><polygon class="cls-2" points="15.23 45.91 15.23 44 6.76 44 6.76 45.91 3 45.91 3 49.18 19 49.18 19 45.91 15.23 45.91"/><rect class="cls-5" x="35.7" y="4.44" width="5.14" height="2.57" transform="translate(15.26 -25.39) rotate(45)"/><polygon class="cls-5" points="25 19 28.64 19 38.45 9.18 34.82 5.55 25 15.36 25 19"/><rect class="cls-5" x="25" y="23" width="16" height="20"/><path class="cls-3" d="M28.59,28.77v2.35H27.21V24.45h2.6a3.1,3.1,0,0,1,1.33.27,2,2,0,0,1,.87.78,2.13,2.13,0,0,1,.31,1.15,1.91,1.91,0,0,1-.67,1.55,2.79,2.79,0,0,1-1.86.57Zm0-1.12h1.22a1.24,1.24,0,0,0,.84-.25.94.94,0,0,0,.28-.74,1,1,0,0,0-1.08-1.1H28.59Z"/><line class="cls-4" x1="27" y1="33.94" x2="39" y2="33.94"/><line class="cls-4" x1="27" y1="36.76" x2="39" y2="36.76"/><line class="cls-4" x1="27" y1="39.58" x2="39" y2="39.58"/><rect class="cls-5" x="25" y="50.47" width="16" height="15.53"/><line class="cls-4" x1="33" y1="64.04" x2="33" y2="52.43"/><line class="cls-4" x1="37.64" y1="64.04" x2="37.64" y2="52.43"/><line class="cls-4" x1="28.36" y1="64.04" x2="28.36" y2="52.43"/><polygon class="cls-5" points="37.23 45.91 37.23 44 28.76 44 28.76 45.91 25 45.91 25 49.18 41 49.18 41 45.91 37.23 45.91"/><path d="M16.18,71.7c-2,0-3.58-2-3.65-2.13l-.16-.22.16-.21c.07-.09,1.64-2.14,3.65-2.14s3.59,2,3.66,2.14l.16.21-.16.22C19.77,69.65,18.2,71.7,16.18,71.7Zm-2.89-2.35A4.4,4.4,0,0,0,16.18,71a4.38,4.38,0,0,0,2.89-1.63,4.38,4.38,0,0,0-2.89-1.63A4.4,4.4,0,0,0,13.29,69.35Z"/><ellipse cx="16.18" cy="69.35" rx="0.83" ry="0.82"/><line class="cls-6" x1="5.01" y1="75.73" x2="15.1" y2="75.73"/><line class="cls-6" x1="5.01" y1="79.05" x2="15.1" y2="79.05"/><line class="cls-6" x1="5.01" y1="82.37" x2="15.1" y2="82.37"/><path d="M15.94,87H4.17A2.16,2.16,0,0,1,2,84.86V69.92a2.16,2.16,0,0,1,2.17-2.14H12a.47.47,0,0,1,.48.48.48.48,0,0,1-.48.48H4.17A1.19,1.19,0,0,0,3,69.92V84.86A1.19,1.19,0,0,0,4.17,86H15.94a1.18,1.18,0,0,0,1.19-1.18V73.5a.49.49,0,0,1,.49-.48.48.48,0,0,1,.48.48V84.86A2.15,2.15,0,0,1,15.94,87Z"/><path class="cls-5" d="M38.19,71.7c-2,0-3.59-2-3.66-2.13l-.16-.22.16-.21c.07-.09,1.64-2.14,3.66-2.14s3.58,2,3.65,2.14l.16.21-.16.22C41.77,69.65,40.2,71.7,38.19,71.7Zm-2.9-2.35A4.43,4.43,0,0,0,38.19,71a4.43,4.43,0,0,0,2.89-1.63,4.43,4.43,0,0,0-2.89-1.63A4.43,4.43,0,0,0,35.29,69.35Z"/><ellipse class="cls-5" cx="38.19" cy="69.35" rx="0.83" ry="0.82"/><path class="cls-5" d="M37.1,76.23H27a.5.5,0,0,1-.5-.5.5.5,0,0,1,.5-.5H37.1a.5.5,0,0,1,.5.5A.5.5,0,0,1,37.1,76.23Z"/><path class="cls-5" d="M37.1,79.55H27a.5.5,0,0,1,0-1H37.1a.5.5,0,1,1,0,1Z"/><path class="cls-5" d="M37.1,82.87H27a.5.5,0,0,1,0-1H37.1a.5.5,0,0,1,0,1Z"/><path class="cls-5" d="M37.94,87H26.17A2.16,2.16,0,0,1,24,84.86V69.92a2.16,2.16,0,0,1,2.17-2.14H34a.48.48,0,0,1,.49.48.49.49,0,0,1-.49.48H26.17A1.19,1.19,0,0,0,25,69.92V84.86A1.19,1.19,0,0,0,26.17,86H37.94a1.19,1.19,0,0,0,1.2-1.18V73.5a.48.48,0,0,1,.48-.48.49.49,0,0,1,.49.48V84.86A2.16,2.16,0,0,1,37.94,87Z"/><path d="M20,92.68a1,1,0,0,1,1,1v9a1,1,0,0,1-1,1H2a1,1,0,0,1-1-1v-9a1,1,0,0,1,1-1H20m0-1H2a2,2,0,0,0-2,2v9a2,2,0,0,0,2,2H20a2,2,0,0,0,2-2v-9a2,2,0,0,0-2-2Z"/><polyline class="cls-7" points="1.07 92.76 11 98.18 20.94 92.76"/><path class="cls-5" d="M42,92.68a1,1,0,0,1,1,1v9a1,1,0,0,1-1,1H24a1,1,0,0,1-1-1v-9a1,1,0,0,1,1-1H42m0-1H24a2,2,0,0,0-2,2v9a2,2,0,0,0,2,2H42a2,2,0,0,0,2-2v-9a2,2,0,0,0-2-2Z"/><polyline class="cls-8" points="23.07 92.76 33 98.18 42.94 92.76"/><path class="cls-9" d="M12.7,120.18l5.45-5.45a1.2,1.2,0,1,0-1.7-1.7L11,118.48,5.55,113a1.2,1.2,0,1,0-1.7,1.7l5.45,5.45-5.45,5.45a1.2,1.2,0,0,0,0,1.7,1.24,1.24,0,0,0,.85.35,1.2,1.2,0,0,0,.85-.35L11,121.88l5.45,5.45a1.2,1.2,0,0,0,.85.35,1.24,1.24,0,0,0,.85-.35,1.2,1.2,0,0,0,0-1.7Z"/></g></g></svg>