<svg xmlns="http://www.w3.org/2000/svg" width="54.84" height="60" viewBox="0 0 54.84 60"><defs><style>.cls-1{fill:#c1272d;}</style></defs><title>logo</title><g id="Layer_2" data-name="Layer 2"><g id="Asset_Sheet" data-name="Asset Sheet"><path class="cls-1" d="M1.36,9.13c.85,9,2,17.93,4.55,26.36a55.17,55.17,0,0,0,4.93,11.92,24.84,24.84,0,0,0,3.64,4.87A10.73,10.73,0,0,0,19,55.23c.41.14.84.15,1.27.26s.89,0,1.35.07l1.4-.15,1.45-.32a22.39,22.39,0,0,0,5.69-2.62A41.38,41.38,0,0,0,40,43.68a47.65,47.65,0,0,0,3.93-5.42,52.91,52.91,0,0,0,3.25-5.84,41.58,41.58,0,0,0,3.91-12.57,18.88,18.88,0,0,0-.1-6.2c-.14-.46-.24-.94-.39-1.38A11.67,11.67,0,0,0,50,11a7.32,7.32,0,0,0-1.63-2,13.9,13.9,0,0,0-5.09-2.58,25.77,25.77,0,0,0-6-1C29.35,5,18.76,8,21.07,14.86a23.38,23.38,0,0,0,2,5.6A57.93,57.93,0,0,0,26.25,26c2.36,3.68,5.05,7.23,7.82,10.73,5.56,7,11.6,13.72,17.52,20.61l-.38.4c-3.64-2.74-7.14-5.64-10.55-8.65S33.93,43,30.75,39.67c-1.57-1.66-3.14-3.34-4.65-5.1S23.16,31,21.78,29.1a50.33,50.33,0,0,1-3.83-6A26.6,26.6,0,0,1,15.22,16a13.69,13.69,0,0,1-.29-4.24,10.41,10.41,0,0,1,1.44-4.46A11.8,11.8,0,0,1,19.44,4a17.16,17.16,0,0,1,3.56-2A31.06,31.06,0,0,1,37.67.16a29.92,29.92,0,0,1,7.22,1.58,20.9,20.9,0,0,1,3.47,1.61,13.75,13.75,0,0,1,3.15,2.44,11.23,11.23,0,0,1,2.31,3.45,12.89,12.89,0,0,1,.63,1.94c.15.64.22,1.29.32,1.93a22.48,22.48,0,0,1-.67,7.29,46.45,46.45,0,0,1-2.22,6.66c-.47,1.06-.92,2.12-1.44,3.15s-1,2.06-1.56,3.07A89,89,0,0,1,41.41,44.8C40,46.64,38.57,48.4,37,50.12A44.62,44.62,0,0,1,32,55a25.29,25.29,0,0,1-6.17,3.85,13.48,13.48,0,0,1-7.87,1,12,12,0,0,1-3.85-1.52A15.53,15.53,0,0,1,11,55.84a24.89,24.89,0,0,1-4.43-6A48.86,48.86,0,0,1,1.7,36.57,74.63,74.63,0,0,1,0,22.82,78.28,78.28,0,0,1,.8,9.12Z"/></g></g></svg>