<svg xmlns="http://www.w3.org/2000/svg" width="45" height="15" viewBox="0 0 45 15"><defs><style>.cls-1,.cls-3{fill:none;}.cls-1{stroke:#fff;stroke-linejoin:bevel;}.cls-2{fill:#fff;}</style></defs><title>slideshow-sprite</title><g id="Layer_2" data-name="Layer 2"><g id="Asset_Sheet" data-name="Asset Sheet"><polyline class="cls-1" points="20 3.5 25 7.5 20 11.5"/><polyline class="cls-1" points="10 3.5 5 7.5 10 11.5"/><polygon class="cls-2" points="38.95 3.5 38.95 4.23 40.26 4.23 37.97 6.52 38.48 7.03 40.77 4.74 40.77 6.04 41.5 6.04 41.5 3.5 38.95 3.5"/><polygon class="cls-2" points="36.05 4.23 36.05 3.5 33.5 3.5 33.5 6.04 34.23 6.04 34.23 4.74 36.52 7.03 37.03 6.52 34.74 4.23 36.05 4.23"/><polygon class="cls-2" points="40.77 10.26 38.48 7.97 37.97 8.48 40.26 10.77 38.95 10.77 38.95 11.5 41.5 11.5 41.5 8.96 40.77 8.96 40.77 10.26"/><polygon class="cls-2" points="36.52 7.97 34.23 10.26 34.23 8.96 33.5 8.96 33.5 11.5 36.05 11.5 36.05 10.77 34.74 10.77 37.03 8.48 36.52 7.97"/><rect class="cls-3" width="45" height="15"/></g></g></svg>